<svg width="17" height="17" viewBox="0 0 17 17" fill="none" xmlns="http://www.w3.org/2000/svg">
<path d="M8.49935 9.20817C8.70004 9.20817 8.86839 9.14017 9.00439 9.00417C9.13992 8.86864 9.20768 8.70053 9.20768 8.49984V5.6488C9.20768 5.4481 9.13992 5.28282 9.00439 5.15296C8.86839 5.0231 8.70004 4.95817 8.49935 4.95817C8.29865 4.95817 8.13054 5.02593 7.99502 5.16146C7.85902 5.29746 7.79102 5.46581 7.79102 5.6665V8.51755C7.79102 8.71824 7.85902 8.88352 7.99502 9.01338C8.13054 9.14324 8.29865 9.20817 8.49935 9.20817ZM8.49935 12.0415C8.70004 12.0415 8.86839 11.9735 9.00439 11.8375C9.13992 11.702 9.20768 11.5339 9.20768 11.3332C9.20768 11.1325 9.13992 10.9641 9.00439 10.8281C8.86839 10.6926 8.70004 10.6248 8.49935 10.6248C8.29865 10.6248 8.13054 10.6926 7.99502 10.8281C7.85902 10.9641 7.79102 11.1325 7.79102 11.3332C7.79102 11.5339 7.85902 11.702 7.99502 11.8375C8.13054 11.9735 8.29865 12.0415 8.49935 12.0415ZM8.49935 15.5832C7.51949 15.5832 6.59865 15.3971 5.73685 15.025C4.87504 14.6534 4.12539 14.1488 3.48789 13.5113C2.85039 12.8738 2.34582 12.1241 1.97418 11.2623C1.60207 10.4005 1.41602 9.4797 1.41602 8.49984C1.41602 7.51998 1.60207 6.59914 1.97418 5.73734C2.34582 4.87553 2.85039 4.12588 3.48789 3.48838C4.12539 2.85088 4.87504 2.34607 5.73685 1.97396C6.59865 1.60232 7.51949 1.4165 8.49935 1.4165C9.47921 1.4165 10.4 1.60232 11.2618 1.97396C12.1237 2.34607 12.8733 2.85088 13.5108 3.48838C14.1483 4.12588 14.6529 4.87553 15.0245 5.73734C15.3966 6.59914 15.5827 7.51998 15.5827 8.49984C15.5827 9.4797 15.3966 10.4005 15.0245 11.2623C14.6529 12.1241 14.1483 12.8738 13.5108 13.5113C12.8733 14.1488 12.1237 14.6534 11.2618 15.025C10.4 15.3971 9.47921 15.5832 8.49935 15.5832ZM8.49935 14.1665C10.0695 14.1665 11.4066 13.6147 12.5106 12.5111C13.6142 11.4071 14.166 10.07 14.166 8.49984C14.166 6.9297 13.6142 5.5926 12.5106 4.48855C11.4066 3.38496 10.0695 2.83317 8.49935 2.83317C6.92921 2.83317 5.59235 3.38496 4.48877 4.48855C3.38471 5.5926 2.83268 6.9297 2.83268 8.49984C2.83268 10.07 3.38471 11.4071 4.48877 12.5111C5.59235 13.6147 6.92921 14.1665 8.49935 14.1665Z" fill="#9CA3AF"/>
</svg>
