<svg width="16" height="12" viewBox="0 0 16 12" fill="none" xmlns="http://www.w3.org/2000/svg">
<path d="M5.55061 11.5749C5.41728 11.5749 5.29228 11.5539 5.17561 11.5119C5.05894 11.4706 4.95061 11.3999 4.85061 11.2999L0.550611 6.9999C0.367278 6.81657 0.279611 6.5789 0.287611 6.2869C0.296278 5.99557 0.392277 5.75824 0.575611 5.5749C0.758944 5.39157 0.992278 5.2999 1.27561 5.2999C1.55894 5.2999 1.79228 5.39157 1.97561 5.5749L5.55061 9.1499L14.0256 0.674902C14.2089 0.491569 14.4466 0.399902 14.7386 0.399902C15.0299 0.399902 15.2673 0.491569 15.4506 0.674902C15.6339 0.858236 15.7256 1.09557 15.7256 1.3869C15.7256 1.6789 15.6339 1.91657 15.4506 2.0999L6.25061 11.2999C6.15061 11.3999 6.04228 11.4706 5.92561 11.5119C5.80894 11.5539 5.68394 11.5749 5.55061 11.5749Z" fill="#1F2937"/>
</svg>
